<svg xmlns="http://www.w3.org/2000/svg" xmlns:xlink="http://www.w3.org/1999/xlink" viewBox="0 0 122.49 117.07"><defs><style>.cls-1{fill:none;}.cls-2{fill:#DFBD37;}.cls-3{fill:#777;}.cls-4{opacity:0.05;}.cls-5{clip-path:url(#clip-path);}</style><clipPath id="clip-path" transform="translate(0 0)"><rect class="cls-1" width="61.25" height="117.05"/></clipPath></defs><title>LogoVBuilder</title><g id="Layer_2" data-name="Layer 2"><g id="Layer_1-2" data-name="Layer 1"><path class="cls-2" d="M23.4,0H98.6c3.47,10.47,6.88,21,10.41,31.42,4.46,13.23,9,26.41,13.44,39.66a3.26,3.26,0,0,1-1.2,2.73C102,87.91,82.73,101.89,63.53,116c-2,1.47-3.25,1.4-5.21,0q-28-20.58-56.15-40.91C.11,73.56-.48,72.32.39,69.77,4.32,58.17,8,46.47,11.79,34.84S19.53,11.61,23.4,0M60.2,94.12,61.72,94c9-23.35,18-46.71,27.31-70.74-4.32,0-7.68.16-11-.05-2.52-.16-3.52,1-4.28,3.21-3,8.79-6.17,17.53-9.31,26.28-1,2.82-2.09,5.61-3.47,9.26-.9-2.44-1.47-3.93-2-5.43-3.58-10-7.1-20.07-10.8-30-.47-1.26-1.86-2.95-3-3.07-3.71-.38-7.48-.14-12.14-.14C42.27,47.35,51.24,70.73,60.2,94.12" transform="translate(0 0)"/><path class="cls-3" d="M30.62,7.32C9.79,99.45,63.21,82.76,61.25,117.06c0-1.29.22-8.33-1.52-9.61Q34.8,89.12,9.72,71c-1.83-1.32-2.36-2.42-1.59-4.7,3.51-10.32,7.11-21,11.37-31,4.67-11,7.67-17.64,11.12-28" transform="translate(0 0)"/><g class="cls-4"><g class="cls-5"><path d="M23.4,0l7.22,7.31L8.4,67.32a2.24,2.24,0,0,0,.79,2.59l48.07,34.88a9.69,9.69,0,0,1,4,7.82v4.45L58.32,116,0,74.47l.39-4.7Z" transform="translate(0 0)"/></g></g></g></g></svg>